<svg id="visual" viewBox="0 0 1080 1920" width="1080" height="1920" xmlns="http://www.w3.org/2000/svg" xmlns:xlink="http://www.w3.org/1999/xlink" version="1.1"><rect x="0" y="0" width="1080" height="1920" fill="#44a9c1"></rect><path d="M0 963L154 963L309 713L463 1028L617 831L771 930L926 809L1080 964L1080 1921L926 1921L771 1921L617 1921L463 1921L309 1921L154 1921L0 1921Z" fill="#4084ad"></path><path d="M0 1051L154 1090L309 876L463 814L617 1091L771 999L926 1176L1080 920L1080 1921L926 1921L771 1921L617 1921L463 1921L309 1921L154 1921L0 1921Z" fill="#249fc0"></path><path d="M0 1028L154 1121L309 1055L463 1023L617 1310L771 1203L926 1245L1080 1177L1080 1921L926 1921L771 1921L617 1921L463 1921L309 1921L154 1921L0 1921Z" fill="#00b9cb"></path><path d="M0 1320L154 1536L309 1437L463 1555L617 1452L771 1560L926 1589L1080 1491L1080 1921L926 1921L771 1921L617 1921L463 1921L309 1921L154 1921L0 1921Z" fill="#00d2c6"></path><path d="M0 1509L154 1606L309 1601L463 1536L617 1572L771 1659L926 1608L1080 1753L1080 1921L926 1921L771 1921L617 1921L463 1921L309 1921L154 1921L0 1921Z" fill="#05e8ad"></path></svg>