<svg id="层_1" data-name="层 1" xmlns="http://www.w3.org/2000/svg" viewBox="0 0 750.75 192"><defs><style>.cls-1{fill:#fff;}</style></defs><g id="圆角矩形_自动形状" data-name="圆角矩形 自动形状"><path class="cls-1" d="M169.12,0H22.88Q0,0,0,22.88V169.12Q0,192,22.88,192H169.12Q192,192,192,169.12V22.88Q192,0,169.12,0ZM28.5,36.75H45L79.5,91.5,42.75,144H26.25L61.5,90.75Zm3,137.63a3.75,3.75,0,1,1,3.75-3.76A3.75,3.75,0,0,1,31.5,174.38Zm11.25,0a3.75,3.75,0,1,1,3.75-3.76A3.75,3.75,0,0,1,42.75,174.38Zm11.25,0a3.75,3.75,0,1,1,3.75-3.76A3.75,3.75,0,0,1,54,174.38Zm21.75,0H64.5a3.75,3.75,0,1,1,0-7.5H75.75a3.75,3.75,0,1,1,0,7.5ZM66,144l36.75-52.5-34.5-54H91.5l24,43.5L141,36.75h21.75l-36,54,34.5,54h-22.5l-24.75-42L88.5,144Zm54,30.38H108.75a3.75,3.75,0,1,1,0-7.5H120a3.75,3.75,0,1,1,0,7.5Zm11.25,0a3.75,3.75,0,1,1,3.75-3.76A3.75,3.75,0,0,1,131.25,174.38Zm11.25,0a3.75,3.75,0,1,1,3.75-3.76A3.75,3.75,0,0,1,142.5,174.38Zm21.75,0H153a3.75,3.75,0,1,1,0-7.5h11.25a3.75,3.75,0,1,1,0,7.5Z"/></g><g id="路径"><polygon class="cls-1" points="345.75 42 304.5 136.5 264 42 245.25 42 294.75 158.25 316.5 158.25 365.25 42 345.75 42"/></g><g id="路径-2" data-name="路径"><polygon class="cls-1" points="440.25 97.5 481.5 41.25 459 41.25 428.25 81.75 399 41.25 376.5 41.25 417 98.25 372 158.25 395.25 158.25 429 114 462 159 485.25 159 440.25 97.5"/></g><g id="路径-3" data-name="路径"><rect class="cls-1" x="537.75" y="37.5" width="8.25" height="122.25"/></g><g id="路径-4" data-name="路径"><rect class="cls-1" x="571.5" y="77.25" width="7.5" height="82.5"/></g><g id="路径-5" data-name="路径"><path class="cls-1" d="M639,74.25c-24.09,1.13-26.25,17.25-26.25,17.25V77.25h-7.5v82.5h7.5V106.5s4.82-25,26.25-24.75c20.25.19,21.75,22.5,21.75,22.5v55.5h7.5v-55.5S663.09,73.12,639,74.25Z"/></g><path class="cls-1" d="M512.29,139.5a9.38,9.38,0,1,0,9.37,9.38A9.38,9.38,0,0,0,512.29,139.5Zm0,16.18a6.68,6.68,0,1,1,6.67-6.67A6.67,6.67,0,0,1,512.25,155.68Z"/><g id="椭圆形"><circle class="cls-1" cx="574.5" cy="49.5" r="6.75"/></g><g id="路径-6" data-name="路径"><polygon class="cls-1" points="709.5 116.25 747.75 76.5 738.75 76.5 701.25 114.75 701.25 36.75 693 36.75 693 159.75 701.25 159.75 701.25 119.25 739.5 159 750.75 159 709.5 116.25"/></g></svg>