<svg id="层_1" data-name="层 1" xmlns="http://www.w3.org/2000/svg" viewBox="0 0 192 192"><defs><style>.cls-1{fill:#495157;}.cls-2{fill:#fff;}</style></defs><g id="圆角矩形_自动形状" data-name="圆角矩形 自动形状"><rect class="cls-1" width="192" height="192" rx="22.88"/></g><g id="路径"><polygon class="cls-2" points="45 36.75 28.5 36.75 61.5 90.75 26.25 144 42.75 144 79.5 91.5 45 36.75"/></g><g id="路径-2" data-name="路径"><polygon class="cls-2" points="162.75 36.75 141 36.75 115.5 81 91.5 37.5 68.25 37.5 102.75 91.5 66 144 88.5 144 114 102.75 138.75 144.75 161.25 144.75 126.75 90.75 162.75 36.75"/></g><g id="椭圆形"><circle class="cls-2" cx="31.5" cy="170.63" r="3.75"/></g><g id="椭圆形-2" data-name="椭圆形"><circle class="cls-2" cx="42.75" cy="170.63" r="3.75"/></g><g id="椭圆形-3" data-name="椭圆形"><circle class="cls-2" cx="54" cy="170.63" r="3.75"/></g><g id="椭圆形-4" data-name="椭圆形"><circle class="cls-2" cx="131.25" cy="170.63" r="3.75"/></g><g id="椭圆形-5" data-name="椭圆形"><circle class="cls-2" cx="142.5" cy="170.63" r="3.75"/></g><g id="路径-3" data-name="路径"><path class="cls-2" d="M75.75,166.88H64.5a3.75,3.75,0,1,0,0,7.5H75.75a3.75,3.75,0,1,0,0-7.5Z"/></g><g id="路径-4" data-name="路径"><path class="cls-2" d="M120,166.88H108.75a3.75,3.75,0,1,0,0,7.5H120a3.75,3.75,0,1,0,0-7.5Z"/></g><g id="路径-5" data-name="路径"><path class="cls-2" d="M164.25,166.88H153a3.75,3.75,0,1,0,0,7.5h11.25a3.75,3.75,0,1,0,0-7.5Z"/></g></svg>