<svg id="层_1" data-name="层 1" xmlns="http://www.w3.org/2000/svg" viewBox="0 0 750.75 192"><defs><style>.cls-1{fill:#495157;}.cls-2{fill:#fff;}</style></defs><g id="圆角矩形_自动形状" data-name="圆角矩形 自动形状"><rect class="cls-1" width="192" height="192" rx="22.88"/></g><g id="路径"><polygon class="cls-2" points="45 36.75 28.5 36.75 61.5 90.75 26.25 144 42.75 144 79.5 91.5 45 36.75"/></g><g id="路径-2" data-name="路径"><polygon class="cls-2" points="162.75 36.75 141 36.75 115.5 81 91.5 37.5 68.25 37.5 102.75 91.5 66 144 88.5 144 114 102.75 138.75 144.75 161.25 144.75 126.75 90.75 162.75 36.75"/></g><g id="椭圆形"><circle class="cls-2" cx="31.5" cy="170.63" r="3.75"/></g><g id="椭圆形-2" data-name="椭圆形"><path class="cls-2" d="M42.75,166.88a3.75,3.75,0,1,0,3.75,3.74A3.74,3.74,0,0,0,42.75,166.88Z"/></g><g id="椭圆形-3" data-name="椭圆形"><path class="cls-2" d="M54,166.88a3.75,3.75,0,1,0,3.75,3.74A3.74,3.74,0,0,0,54,166.88Z"/></g><g id="椭圆形-4" data-name="椭圆形"><path class="cls-2" d="M131.25,166.88a3.75,3.75,0,1,0,3.75,3.74A3.74,3.74,0,0,0,131.25,166.88Z"/></g><g id="椭圆形-5" data-name="椭圆形"><path class="cls-2" d="M142.5,166.88a3.75,3.75,0,1,0,3.75,3.74A3.74,3.74,0,0,0,142.5,166.88Z"/></g><g id="圆角矩形_自动形状-2" data-name="圆角矩形 自动形状"><path class="cls-2" d="M75.75,166.88H64.5a3.75,3.75,0,1,0,0,7.5H75.75a3.75,3.75,0,1,0,0-7.5Z"/></g><g id="圆角矩形_自动形状-3" data-name="圆角矩形 自动形状"><path class="cls-2" d="M120,166.88H108.75a3.75,3.75,0,1,0,0,7.5H120a3.75,3.75,0,1,0,0-7.5Z"/></g><g id="圆角矩形_自动形状-4" data-name="圆角矩形 自动形状"><path class="cls-2" d="M164.25,166.88H153a3.75,3.75,0,1,0,0,7.5h11.25a3.75,3.75,0,1,0,0-7.5Z"/></g><g id="路径-3" data-name="路径"><polygon class="cls-1" points="345.75 42 304.5 136.5 264 42 245.25 42 294.75 158.25 316.5 158.25 365.25 42 345.75 42"/></g><g id="路径-4" data-name="路径"><polygon class="cls-1" points="440.25 97.5 481.5 41.25 459 41.25 428.25 81.75 399 41.25 376.5 41.25 417 98.25 372 158.25 395.25 158.25 429 114 462 159 485.25 159 440.25 97.5"/></g><g id="路径-5" data-name="路径"><rect class="cls-1" x="537.75" y="37.5" width="8.25" height="122.25"/></g><g id="路径-6" data-name="路径"><rect class="cls-1" x="571.5" y="77.25" width="7.5" height="82.5"/></g><g id="路径-7" data-name="路径"><path class="cls-1" d="M639,74.25c-24.09,1.13-26.25,17.25-26.25,17.25V77.25h-7.5v82.5h7.5V106.5s4.82-25,26.25-24.75c20.25.19,21.75,22.5,21.75,22.5v55.5h7.5v-55.5S663.09,73.12,639,74.25Z"/></g><g id="路径-8" data-name="路径"><polygon class="cls-1" points="709.5 116.25 747.75 76.5 738.75 76.5 701.25 114.75 701.25 36.75 693 36.75 693 159.75 701.25 159.75 701.25 119.25 739.5 159 750.75 159 709.5 116.25"/></g><g id="椭圆形-6" data-name="椭圆形"><circle class="cls-1" cx="510.38" cy="149.63" r="10.13"/></g><g id="椭圆形-7" data-name="椭圆形"><circle class="cls-2" cx="510.37" cy="149.63" r="6" transform="translate(176.83 563.89) rotate(-67.5)"/></g><g id="椭圆形-8" data-name="椭圆形"><circle class="cls-1" cx="574.5" cy="49.5" r="6.75"/></g></svg>