<svg id="层_1" data-name="层 1" xmlns="http://www.w3.org/2000/svg" viewBox="0 0 192 192"><defs><style>.cls-1{fill:#fff;}</style></defs><g id="圆角矩形_自动形状" data-name="圆角矩形 自动形状"><path class="cls-1" d="M169.12,0H22.88Q0,0,0,22.88V169.12Q0,192,22.88,192H169.12Q192,192,192,169.12V22.88Q192,0,169.12,0ZM28.5,36.75H45L79.5,91.5,42.75,144H26.25L61.5,90.75Zm3,137.63a3.75,3.75,0,1,1,3.75-3.76A3.75,3.75,0,0,1,31.5,174.38Zm11.25,0a3.75,3.75,0,1,1,3.75-3.76A3.75,3.75,0,0,1,42.75,174.38Zm11.25,0a3.75,3.75,0,1,1,3.75-3.76A3.75,3.75,0,0,1,54,174.38Zm21.75,0H64.5a3.75,3.75,0,1,1,0-7.5H75.75a3.75,3.75,0,1,1,0,7.5ZM66,144l36.75-52.5-34.5-54H91.5l24,43.5L141,36.75h21.75l-36,54,34.5,54h-22.5l-24.75-42L88.5,144Zm54,30.38H108.75a3.75,3.75,0,1,1,0-7.5H120a3.75,3.75,0,1,1,0,7.5Zm11.25,0a3.75,3.75,0,1,1,3.75-3.76A3.75,3.75,0,0,1,131.25,174.38Zm11.25,0a3.75,3.75,0,1,1,3.75-3.76A3.75,3.75,0,0,1,142.5,174.38Zm21.75,0H153a3.75,3.75,0,1,1,0-7.5h11.25a3.75,3.75,0,1,1,0,7.5Z"/></g></svg>